<!-- svgstack.com --><svg xmlns="http://www.w3.org/2000/svg" height="800" width="1200" viewBox="-32.699775 -13.10675 283.39805 78.6405"><defs><clipPath clipPathUnits="userSpaceOnUse" id="b"><path d="M289.535 543.157v34.719h148.493v-34.719"/></clipPath><clipPath clipPathUnits="userSpaceOnUse" id="a"><path d="M467.772 44.937h96.75v34.494h-96.75z" clip-rule="evenodd"/></clipPath></defs><g clip-path="url(#a)" transform="matrix(2.44683 0 0 -2.44683 -1154.2122 180.5639)" fill="#154e8f"><path d="M510.7441 66.5357h3.729V54.6533h-3.729zm4.9878 0h3.7295v-1.586h.0468c.7842 1.2077 1.956 1.8705 3.2922 1.8705 1.128 0 2.2523-.7319 2.3231-1.8705h.045c.7848 1.2077 1.9566 1.8705 3.2916 1.8705 1.494 0 2.598-.83 2.598-2.5315v-9.6354h-3.7266v8.403c0 .6369-.2064 1.064-.8964 1.064-.3936 0-.714-.1642-.9654-.4962l-.2112-.2827v-8.6881h-3.7253v8.403c0 .6369-.2064 1.064-.8964 1.064-.3924 0-.714-.1642-.9678-.4962l-.2076-.2827v-8.6881h-3.7295v11.8824m20.3096-8.0722c-.0665-.9923.5064-1.5391 1.2198-1.5391 1.0326 0 1.1736 1.0682 1.1736 3.2671v.8998c0 2.3674 0 3.6004-1.1496 3.6004-.462 0-.8064-.2851-1.0362-.4764l-.2076-.2099zm-3.7283 13.0433h3.7283v-5.6573h.048c.5274.5696 1.4946.9707 2.2518.9707 2.5794 0 3.9594-2.6506 3.9594-6.0819 0-2.7222-1.1034-6.2263-4.2324-6.2263-1.4514 0-2.3951.709-3.1307 1.8458l-.6924-1.7045h-1.932v16.8535m10.9588 0h3.7278V54.6533h-3.7278zm11.2103-9.1355c-.0222 1.1127-.114 2.3914-1.4052 2.3914-1.0572 0-1.377-1.2787-1.377-2.3914zM551.7 60.0989c0-1.0435.204-2.8154 1.6782-2.8154.8988 0 1.6554.661 1.887 1.633l2.5067-.9436c-.1596-.5499-1.3092-3.2474-4.6247-3.2474-3.5676 0-5.1773 2.9598-5.1773 6.2473 0 3.364 1.7027 6.2041 5.1317 6.2041 3.5891 0 4.833-3.172 4.833-6.2707v-.8073H551.7m-40.9667 11.4826h3.7392v-3.4196h-3.7392zm48.8345-15.5372c.1914 0 .4536-.0352.4536.2098 0 .176-.15.2-.321.2h-.3522v-.4098zm.6402-.7973h-.2322l-.39.6288h-.2376v-.6288h-.201v1.3626h.5946c.1122 0 .2268-.0068.3312-.0654.0996-.0586.15-.1796.15-.2925 0-.2703-.1854-.3703-.429-.3759zm-1.5948.6862c0-.5548.4368-.9855.9876-.9855.5412 0 .9822.4307.9822.9855 0 .5382-.441.9726-.9822.9726-.5508 0-.9876-.4344-.9876-.9726m-.2316 0c0 .666.546 1.2115 1.2192 1.2115.6702 0 1.212-.5456 1.212-1.2115 0-.6782-.5418-1.2244-1.212-1.2244-.6732 0-1.2192.5462-1.2192 1.2244M492.6352 71.634h11.5546v-3.2666h-3.7049v-13.587h-4.146v13.587h-3.7037z"/><path d="M502.4997 66.6629h3.6587v-1.7984h.0468c.4596 1.4923 2.1156 2.0829 3.5898 2.0829v-3.8819c-.5076.1889-.9894.3314-1.5192.3314-1.2408 0-1.6344-.3314-2.0484-.9226v-7.6939h-3.7277V66.663m-17.3626-7.7193c-.0468-.2555-.1218-.4931-.2292-.7054a.5687.5687 0 01-.0552-.2272c-.1572-.1592-.2694-.258-.3024-.2845-.8621-.7424-1.5365-1.13-2.583-1.478-.3851-.129-1.1945-.3425-2.2349-.3178l-1.5978-.8887c1.9404-.4376 3.5298-.0352 4.158.1752 1.173.3907 1.9691.8455 2.9333 1.675.195.1685 1.2096 1.0787 1.9116 2.508a9.031 9.031 0 01.3696.8622l-2.37-1.3188"/><g clip-path="url(#b)" transform="matrix(.6 0 0 -.61714 298 409)"><path d="M302.568 548.434c.092-.005.192-.007.289-.009.177-.006.354-.004.529.002-.314.072-.615.172-.902.285l2.378 1.287c1.861-.058 3.74.772 5.001 2.108-.287.025-.592.066-.895.116l4.024 2.182c-.008-.045-.013-.091-.022-.135.165.102.309.219.426.352l2.68 1.45c-.034-.101-.06-.2-.097-.303a.7471.7471 0 00-.079-.166c-.027-.086-.052-.171-.082-.258-.771-2.199-2.25-4.129-4.123-5.61-.052-.07-.107-.136-.179-.19-2.881-2.232-5.778-2.738-7.246-2.841-.08-.006-.153-.008-.231-.012-.883-.068-1.772-.048-2.654.074-.052.006-.104.018-.158.025-.375.053-.706.114-.971.177-.239.054-.463.109-.676.17l2.477 1.341c.17-.017.339-.037.511-.045m-10.423 16.247c-.386-.95-.662-2.127-.711-2.585-.129-1.093-.129-1.093-.141-2.173-.004-.336.035-.828.094-1.196.139-.844.299-1.788.843-3.066v-3.525c-.425.565-.83 1.199-1.187 1.905-.99 1.966-1.221 3.372-1.391 4.402-.075.473-.121 1.062-.117 1.501.012 1.16.013 1.182.15 2.358.084.707.473 2.291.993 3.419.406.881.777 1.561 1.231 2.221.04.072.084.135.138.193.058.081.121.163.183.244v-3.909c-.029.07-.059.14-.085.211"/></g><path d="M485.4083 64.451c-.1044-.1722-.2238-.3264-.3528-.4752.3972-.751.7032-1.5089.9078-2.2402.0798.1105.162.2228.2322.3431.642 1.0837.7548 2.41.3246 3.7442a.5155.5155 0 00-.0726.1352c-.0384.1135-.087.2222-.1308.3314a.547.547 0 00-.1176.1722 1.0162 1.0162 0 01-.1644.258l-.2424.1339c.1644-.8523.0372-1.6904-.384-2.4026m-6.3995 6.0375c-.0252-.0024-.0492-.0024-.0738-.0024-.3528-.0525-.69-.1346-1.0056-.2469.2712-.0654.5508-.1555.8334-.2641.2214.158.4668.287.7248.3918l-.2562.1438c-.0738-.0086-.15-.0105-.2226-.0222m8.4982-10.226l5.0586 2.8179-4.923 2.7444c.6919-2.2248.3859-4.1484-.1355-5.5623m-6.9587 9.2799a3.2698 3.2698 0 01-.5826-.1419c.687-.3974 1.3842-.9115 2.0604-1.5317.474.1512.9246.2592 1.3518.3314l-2.4636 1.3725a3.1695 3.1695 0 01-.366-.0303m2.3898-10.6759c-2.8074-.403-5.7857.9523-7.5203 3.1962-.6504-.811-1.1046-1.6188-1.2678-2.3384-.0636-.2826-.0762-.532-.0444-.7492a9.3248 9.3248 0 01.3828-.5017c.4008-.4925 1.5348-1.6978 3.4061-2.2538.6594-.1975 1.2828-.2746 1.8378-.2888l5.4047 3.0129c.0438.2209.0672.4548.0696.6998-.666-.3913-1.431-.6548-2.2685-.777m-7.3769 4.9686c.6414.645 1.3752 1.267 2.172 1.8323a4.6004 4.6004 0 00-.1435.3617c-.0006 0-.0006 0-.0006.0012-.3515 1.038-.2633 2.0828.2472 2.9468.0324.0519.0672.0988.1008.1482-.585.1752-1.1297.2326-1.6037.1623-.2958-.2734-.5556-.5802-.7626-.93-.3876-.6536-.5832-1.3954-.5832-2.1743 0-.543.0954-1.1016.2856-1.6625.0804-.2346.18-.4629.288-.6857m3.0239 2.5525c.0144-.0407.0324-.0808.048-.1203.7212.4468 1.4796.846 2.2536 1.1756-.645.5363-1.2984.961-1.9284 1.272a2.1033 2.1033 0 01-.2214-.3024c-.345-.582-.399-1.301-.1518-2.0243v-.0006m4.1124-2.5006c.3624.0518.6918.1653.981.3295a13.4927 13.4927 0 01-1.9098 2.4174 11.6702 11.6702 0 01-.3804-.15c-.7506-.3129-1.4964-.7066-2.2098-1.1547.8292-1.0201 2.2098-1.631 3.519-1.4422m-6.9983 6.5645c.5592.3184 1.0944.6215 2.046.8868l-4.41 2.4569v-5.5413c1.0152 1.396 2.199 2.1038 2.364 2.1976m8.806-5.4358c.3474.5826.4014 1.3028.1542 2.0255v.0006a4.612 4.612 0 01-.0744.1833c-.4842.0105-1.0523-.066-1.6787-.2278a14.4184 14.4184 0 001.5677-2.0266c.0096.0154.0222.0296.0312.045"/><path d="M482.793 59.9422c.8796.1246 1.6547.4412 2.2871.9103-.1578.7708-.4554 1.5953-.8742 2.426-.4031-.2327-.8603-.3938-1.3643-.4666-1.6956-.2438-3.4908.574-4.5432 1.9249-.7998-.5746-1.536-1.209-2.163-1.8607 1.4844-2.0421 4.146-3.295 6.6576-2.934m-7.9937 3.0593a6.915 6.915 0 00-.5202 1.1614c-.3858 1.13-.4464 2.2643-.195 3.3104a6.9852 6.9852 0 01-.5196-.8838c-.0894-.1808-.162-.3493-.2292-.511V60.642c.297.7665.8028 1.5707 1.464 2.3594m11.7658-2.2254c-.1056-.1272-.2232-.247-.3414-.3617.0138-.1364.0234-.2697.0318-.4011.1086.2314.2148.4856.3096.7627m-12.8836-2.9986a9.4625 9.4625 0 00-.3462.4523v-5.861l4.7993 2.6735a8.4349 8.4349 0 00-.5334.1358c-2.1503.6387-3.4583 2.0328-3.9197 2.5994m15.568-1.6058c.1908 0 .4536-.0352.4536.2098 0 .1759-.15.2-.321.2h-.3522v-.4098zm.6396-.7974h-.2316l-.3906.6289h-.237v-.6289h-.201v1.3627h.594c.1122 0 .2274-.0068.3318-.0655.0996-.0586.15-.1796.15-.2925 0-.2703-.186-.3703-.429-.3758zm-1.5948.6863c0-.5548.4374-.9856.9882-.9856.5412 0 .9816.4308.9816.9856 0 .5387-.4404.9726-.9816.9726-.5508 0-.9882-.4339-.9882-.9726m-.2316 0c0 .6659.5466 1.2114 1.2198 1.2114.6702 0 1.2113-.5455 1.2113-1.2114 0-.6783-.5411-1.2244-1.2113-1.2244-.6732 0-1.2198.5461-1.2198 1.2244"/></g></svg>