<?xml version="1.0" encoding="UTF-8" standalone="no" ?>
<!DOCTYPE svg PUBLIC "-//W3C//DTD SVG 1.1//EN" "http://www.w3.org/Graphics/SVG/1.1/DTD/svg11.dtd">
<svg xmlns="http://www.w3.org/2000/svg" xmlns:xlink="http://www.w3.org/1999/xlink" version="1.1" width="500" height="500" viewBox="0 0 500 500" xml:space="preserve">
<!-- Created with SVG Stack Editor - https://svgstack.com -->
<defs>
</defs>
<rect x="0" y="0" width="100%" height="100%" fill="transparent"></rect>
<g transform="matrix(1.25 0 0 1.25 250 250)"  >
<g style=""   >
		<g transform="matrix(1 0 0 1 0 0)" id="path_0" clip-path="url(#CLIPPATH_1)"  >
<clipPath id="CLIPPATH_1" >
	<rect transform="matrix(1 0 0 1 0.79 0)" id="clip0_105_993" x="-200" y="-73.563" rx="0" ry="0" width="400" height="147.126" />
</clipPath>
<path style="stroke: none; stroke-width: 1; stroke-dasharray: none; stroke-linecap: butt; stroke-dashoffset: 0; stroke-linejoin: miter; stroke-miterlimit: 4; fill: rgb(61,16,250); fill-rule: nonzero; opacity: 1;"  transform=" translate(-200.13, -73.84)" d="M 0.920166 0.275391 L 148.047 0.275391 L 148.047 147.402 L 0.920166 147.402 L 0.920166 0.275391 Z M 132.745 132.101 L 132.745 15.5765 L 16.2213 15.5765 L 16.2213 132.101 L 132.745 132.101 Z M 29.4627 38.234 L 29.4627 82.6662 C 29.4627 102.97 40.6443 115.034 59.4765 115.034 C 78.8972 115.034 90.0788 102.97 90.0788 82.6662 L 90.0788 38.234 L 74.7776 38.234 L 74.7776 82.6662 C 74.7776 94.1421 69.7753 100.616 59.7707 100.616 C 49.1776 100.616 44.4696 93.8478 44.4696 82.6662 L 44.4696 38.234 L 29.4627 38.234 Z M 109.794 47.3558 C 115.09 47.3558 119.21 43.5306 119.21 38.234 C 119.21 32.6432 115.385 28.8179 109.794 28.8179 C 104.497 28.8179 100.378 32.6432 100.378 38.234 C 100.378 43.5306 104.497 47.3558 109.794 47.3558 Z M 102.143 54.4179 L 102.143 114.151 L 117.444 114.151 L 117.444 54.4179 L 102.143 54.4179 Z M 193.362 89.7283 C 209.84 89.7283 220.727 80.0179 220.727 63.834 C 220.727 48.2386 210.134 38.234 193.362 38.234 L 164.525 38.234 L 164.525 114.446 L 179.826 114.446 L 179.826 90.0225 L 193.362 90.0225 L 193.362 89.7283 Z M 191.596 77.6639 L 179.532 77.6639 L 179.532 50.5926 L 191.596 50.5926 C 200.424 50.5926 205.132 55.5949 205.132 63.834 C 205.132 72.6616 200.424 77.6639 191.596 77.6639 Z M 225.729 84.4317 C 225.729 102.381 237.205 115.034 253.389 115.034 C 263.099 115.034 269.279 111.503 272.81 105.912 L 272.81 114.446 L 288.111 114.446 L 288.111 54.4179 L 272.81 54.4179 L 272.81 63.834 C 268.985 57.6547 262.805 53.8294 253.389 53.8294 C 236.911 53.8294 225.729 66.7765 225.729 84.4317 Z M 272.81 84.4317 C 272.81 94.7306 266.336 101.498 256.92 101.498 C 246.621 101.498 241.325 94.1421 241.325 84.4317 C 241.325 73.8386 247.21 67.0708 256.92 67.0708 C 266.631 67.0708 272.81 74.1329 272.81 84.4317 Z M 326.364 101.204 C 320.479 101.204 319.008 98.5559 319.008 93.2593 L 319.008 67.365 L 332.249 67.365 L 332.249 54.4179 L 319.008 54.4179 L 319.008 37.9398 L 303.706 37.9398 L 303.706 54.4179 L 296.644 54.4179 L 296.644 67.365 L 303.706 67.365 L 303.706 93.2593 C 303.706 107.383 309.886 114.151 324.598 114.151 L 332.543 114.151 L 332.543 101.204 L 326.364 101.204 Z M 356.083 62.9513 L 356.083 34.703 L 340.782 34.703 L 340.782 114.446 L 356.083 114.446 L 356.083 82.6662 C 356.083 72.3673 361.38 66.188 370.502 66.188 C 379.329 66.188 384.037 72.0731 384.037 81.1949 L 384.037 114.151 L 399.339 114.151 L 399.339 79.7237 C 399.339 64.1283 388.157 53.8294 374.033 53.8294 C 365.205 53.8294 359.614 57.0662 356.083 62.9513 Z" stroke-linecap="round" />
</g>
</g>
</g>
<g transform="matrix(1.25 0 0 1.25 250 250)"  >
<g style=""   >
		<g transform="matrix(1 0 0 1 0 0)" id="path_0" clip-path="url(#CLIPPATH_2)"  >
<clipPath id="CLIPPATH_2" >
	<rect transform="matrix(1 0 0 1 0.79 0)" id="clip0_105_993" x="-200" y="-73.563" rx="0" ry="0" width="400" height="147.126" />
</clipPath>
<path style="stroke: none; stroke-width: 1; stroke-dasharray: none; stroke-linecap: butt; stroke-dashoffset: 0; stroke-linejoin: miter; stroke-miterlimit: 4; fill: rgb(61,16,250); fill-rule: nonzero; opacity: 1;"  transform=" translate(-200.13, -73.84)" d="M 0.920166 0.275391 L 148.047 0.275391 L 148.047 147.402 L 0.920166 147.402 L 0.920166 0.275391 Z M 132.745 132.101 L 132.745 15.5765 L 16.2213 15.5765 L 16.2213 132.101 L 132.745 132.101 Z M 29.4627 38.234 L 29.4627 82.6662 C 29.4627 102.97 40.6443 115.034 59.4765 115.034 C 78.8972 115.034 90.0788 102.97 90.0788 82.6662 L 90.0788 38.234 L 74.7776 38.234 L 74.7776 82.6662 C 74.7776 94.1421 69.7753 100.616 59.7707 100.616 C 49.1776 100.616 44.4696 93.8478 44.4696 82.6662 L 44.4696 38.234 L 29.4627 38.234 Z M 109.794 47.3558 C 115.09 47.3558 119.21 43.5306 119.21 38.234 C 119.21 32.6432 115.385 28.8179 109.794 28.8179 C 104.497 28.8179 100.378 32.6432 100.378 38.234 C 100.378 43.5306 104.497 47.3558 109.794 47.3558 Z M 102.143 54.4179 L 102.143 114.151 L 117.444 114.151 L 117.444 54.4179 L 102.143 54.4179 Z M 193.362 89.7283 C 209.84 89.7283 220.727 80.0179 220.727 63.834 C 220.727 48.2386 210.134 38.234 193.362 38.234 L 164.525 38.234 L 164.525 114.446 L 179.826 114.446 L 179.826 90.0225 L 193.362 90.0225 L 193.362 89.7283 Z M 191.596 77.6639 L 179.532 77.6639 L 179.532 50.5926 L 191.596 50.5926 C 200.424 50.5926 205.132 55.5949 205.132 63.834 C 205.132 72.6616 200.424 77.6639 191.596 77.6639 Z M 225.729 84.4317 C 225.729 102.381 237.205 115.034 253.389 115.034 C 263.099 115.034 269.279 111.503 272.81 105.912 L 272.81 114.446 L 288.111 114.446 L 288.111 54.4179 L 272.81 54.4179 L 272.81 63.834 C 268.985 57.6547 262.805 53.8294 253.389 53.8294 C 236.911 53.8294 225.729 66.7765 225.729 84.4317 Z M 272.81 84.4317 C 272.81 94.7306 266.336 101.498 256.92 101.498 C 246.621 101.498 241.325 94.1421 241.325 84.4317 C 241.325 73.8386 247.21 67.0708 256.92 67.0708 C 266.631 67.0708 272.81 74.1329 272.81 84.4317 Z M 326.364 101.204 C 320.479 101.204 319.008 98.5559 319.008 93.2593 L 319.008 67.365 L 332.249 67.365 L 332.249 54.4179 L 319.008 54.4179 L 319.008 37.9398 L 303.706 37.9398 L 303.706 54.4179 L 296.644 54.4179 L 296.644 67.365 L 303.706 67.365 L 303.706 93.2593 C 303.706 107.383 309.886 114.151 324.598 114.151 L 332.543 114.151 L 332.543 101.204 L 326.364 101.204 Z M 356.083 62.9513 L 356.083 34.703 L 340.782 34.703 L 340.782 114.446 L 356.083 114.446 L 356.083 82.6662 C 356.083 72.3673 361.38 66.188 370.502 66.188 C 379.329 66.188 384.037 72.0731 384.037 81.1949 L 384.037 114.151 L 399.339 114.151 L 399.339 79.7237 C 399.339 64.1283 388.157 53.8294 374.033 53.8294 C 365.205 53.8294 359.614 57.0662 356.083 62.9513 Z" stroke-linecap="round" />
</g>
</g>
</g>
</svg>